<!DOCTYPE svg PUBLIC "-//W3C//DTD SVG 20010904//EN" "http://www.w3.org/TR/2001/REC-SVG-20010904/DTD/svg10.dtd">
<svg version="1.0" xmlns="http://www.w3.org/2000/svg" width="249px" height="249px" viewBox="0 0 2490 2490" preserveAspectRatio="xMidYMid meet">
<g id="layer1" fill="#0375b4" stroke="none">
 <path d="M0 1250 l0 -1240 1245 0 1245 0 0 1240 0 1240 -1245 0 -1245 0 0 -1240z m1786 960 c61 -31 124 -94 124 -126 0 -6 6 -17 14 -24 15 -11 58 -134 71 -199 14 -67 7 -276 -11 -337 -32 -113 -58 -157 -140 -233 -42 -40 -91 -79 -108 -88 -135 -69 -225 -219 -213 -353 8 -93 36 -144 96 -174 28 -14 60 -26 71 -26 19 0 99 30 126 48 6 4 30 20 53 35 42 28 61 28 61 1 0 -8 11 -41 25 -74 39 -93 37 -99 -56 -153 -44 -26 -88 -47 -98 -47 -9 0 -22 -5 -29 -12 -20 -20 -161 -14 -202 9 -106 59 -127 81 -180 191 -41 86 -49 129 -50 264 0 139 10 188 59 286 45 91 157 208 241 252 52 27 122 94 144 139 13 25 29 76 36 113 10 57 10 76 -5 135 -24 97 -43 131 -86 159 -77 49 -197 17 -319 -86 -41 -34 -48 -37 -53 -22 -58 189 -63 222 -36 222 4 0 23 13 41 28 41 35 154 89 223 106 49 12 137 -3 201 -34z m-616 -85 l0 -95 -234 0 c-200 0 -237 -2 -250 -16 -24 -23 -24 -555 0 -578 13 -13 44 -16 184 -16 l168 0 6 -27 c3 -16 8 -63 12 -105 l6 -78 -180 0 c-151 0 -183 -3 -196 -16 -24 -23 -24 -495 0 -518 13 -14 49 -16 235 -16 l219 0 0 -95 0 -95 -315 0 -315 0 0 875 0 875 330 0 330 0 0 -95z"/>
 </g>
<g id="layer2" fill="#23809d" stroke="none">
 <path d="M1595 2270 c-8 -12 20 -24 35 -15 6 3 8 11 5 16 -8 12 -32 12 -40 -1z"/>
 <path d="M1655 2270 c-8 -12 20 -24 35 -15 6 3 8 11 5 16 -8 12 -32 12 -40 -1z"/>
 <path d="M1716 2261 c-8 -12 21 -34 33 -27 6 4 8 13 4 21 -6 17 -29 20 -37 6z"/>
 <path d="M1477 2235 c-4 -8 -2 -17 4 -21 12 -7 41 15 33 27 -8 14 -31 11 -37 -6z"/>
 <path d="M1805 2220 c-6 -10 35 -54 67 -71 23 -13 30 4 12 29 -20 28 -71 55 -79 42z"/>
 <path d="M1361 2179 c-33 -31 -11 -51 25 -23 14 10 26 24 26 29 -1 19 -28 16 -51 -6z"/>
 <path d="M1303 2132 c-18 -11 -35 -64 -25 -74 6 -6 18 7 30 31 21 39 18 57 -5 43z"/>
 <path d="M1940 2047 c0 -7 6 -22 14 -33 14 -18 15 -18 21 -1 7 17 -10 47 -26 47 -5 0 -9 -6 -9 -13z"/>
 <path d="M1571 2006 c-7 -8 -8 -17 -3 -20 14 -8 94 8 95 19 3 17 -78 18 -92 1z"/>
 <path d="M1696 2002 c-9 -15 12 -35 29 -28 14 5 15 9 5 21 -14 17 -26 19 -34 7z"/>
 <path d="M1510 1975 c-10 -12 -9 -16 5 -21 17 -7 38 13 29 28 -8 12 -20 10 -34 -7z"/>
 <path d="M1777 1903 c-9 -14 8 -69 19 -63 10 6 7 51 -6 63 -4 5 -10 5 -13 0z"/>
 <path d="M1334 1865 c-14 -36 38 -49 56 -15 6 11 9 20 8 21 -33 8 -60 5 -64 -6z"/>
 <path d="M1766 1614 c-18 -18 -20 -30 -7 -39 10 -6 41 21 41 35 0 17 -19 20 -34 4z"/>
 <path d="M1667 1505 c-4 -8 -2 -17 4 -21 12 -7 41 15 33 27 -8 14 -31 11 -37 -6z"/>
 <path d="M1595 1458 c-11 -6 -24 -17 -28 -25 -4 -7 -14 -13 -22 -13 -16 0 -39 -36 -27 -44 9 -6 94 50 105 69 10 19 -4 26 -28 13z"/>
 <path d="M685 1441 c-3 -5 -2 -12 3 -15 12 -7 372 -10 372 -3 0 4 0 12 0 17 0 13 -367 14 -375 1z"/>
 <path d="M1421 1301 c-8 -6 -11 -16 -7 -27 6 -16 8 -16 23 -1 20 19 6 41 -16 28z"/>
 <path d="M1772 1224 c-25 -17 -29 -34 -9 -34 18 0 51 36 39 44 -5 3 -18 -2 -30 -10z"/>
 <path d="M1339 1146 c-9 -20 -10 -29 -1 -38 8 -8 14 -4 23 16 9 20 10 29 1 38 -8 8 -14 4 -23 -16z"/>
 <path d="M1535 810 c-4 -6 -2 -17 4 -23 6 -6 11 -19 11 -29 0 -10 5 -18 11 -18 7 0 8 12 4 33 -8 38 -20 53 -30 37z"/>
 <path d="M1890 780 c0 -5 6 -10 13 -10 7 0 18 -14 24 -31 7 -17 17 -28 22 -24 17 10 13 33 -9 55 -21 21 -50 27 -50 10z"/>
 <path d="M1327 763 c-9 -14 8 -69 19 -63 10 6 7 51 -6 63 -4 5 -10 5 -13 0z"/>
 <path d="M1595 700 c-9 -14 44 -45 56 -33 7 7 5 16 -6 27 -18 18 -41 21 -50 6z"/>
 <path d="M1747 695 c-4 -8 -2 -17 4 -21 12 -7 41 15 33 27 -8 14 -31 11 -37 -6z"/>
 <path d="M1965 660 c-8 -12 26 -120 37 -120 13 0 9 58 -6 95 -16 37 -21 41 -31 25z"/>
 <path d="M1384 606 c-8 -21 16 -40 30 -26 7 7 4 16 -7 27 -15 15 -17 15 -23 -1z"/>
 <path d="M1433 535 c-6 -18 23 -55 43 -55 7 0 17 -7 22 -17 6 -10 16 -14 27 -10 14 6 9 15 -29 52 -52 50 -54 51 -63 30z"/>
 <path d="M1810 455 c-10 -12 -9 -16 5 -21 17 -7 38 13 29 28 -8 12 -20 10 -34 -7z"/>
 <path d="M1577 443 c-13 -20 14 -34 76 -40 47 -4 67 -3 67 6 0 6 1 14 3 19 1 4 -23 8 -53 8 -30 1 -62 5 -71 8 -10 4 -19 3 -22 -1z"/>
 <path d="M1750 435 c-10 -12 -9 -16 5 -21 17 -7 38 13 29 28 -8 12 -20 10 -34 -7z"/>
 </g>
<g id="layer3" fill="#4298c8" stroke="none">
 <path d="M623 3 c346 -2 908 -2 1250 0 342 1 60 2 -628 2 -687 0 -967 -1 -622 -2z"/>
 </g>
<g id="layer4" fill="#dfc317" stroke="none">
 <path d="M1540 2260 c-62 -19 -139 -60 -154 -81 -9 -13 -16 -20 -16 -16 0 4 -13 1 -30 -8 -33 -17 -38 -32 -13 -42 11 -4 23 3 37 20 12 15 27 27 33 27 7 0 27 9 47 20 63 38 165 62 232 55 76 -7 107 -22 175 -85 33 -31 57 -46 63 -40 22 22 -87 123 -147 136 -15 4 -30 11 -33 15 -6 11 -159 10 -194 -1z"/>
 <path d="M1934 2049 c-7 -12 15 -41 27 -33 14 8 11 31 -6 37 -8 4 -17 2 -21 -4z"/>
 <path d="M1531 2000 c-30 -17 -78 -48 -108 -70 -29 -23 -61 -40 -71 -38 -22 4 -23 -31 -1 -45 12 -7 30 2 80 42 76 61 170 111 211 111 33 0 63 -13 95 -43 21 -19 23 -19 29 -2 5 12 0 24 -17 37 -62 49 -139 52 -218 8z"/>
 <path d="M1997 1883 c-9 -14 8 -128 18 -125 12 3 9 112 -3 124 -6 6 -12 6 -15 1z"/>
 <path d="M1794 1717 c-7 -20 -2 -47 11 -50 14 -3 19 43 6 56 -7 7 -12 6 -17 -6z"/>
 <path d="M1719 1547 c-25 -23 -93 -77 -152 -119 -110 -80 -148 -121 -129 -140 7 -7 28 7 70 45 32 30 96 80 141 112 78 54 131 109 131 133 0 20 -13 13 -61 -31z"/>
 <path d="M1965 1470 c-19 -37 -13 -69 9 -51 19 16 30 61 17 74 -6 6 -15 -2 -26 -23z"/>
 <path d="M1035 1430 c-8 -13 14 -52 26 -45 14 9 11 42 -6 48 -8 4 -17 2 -20 -3z"/>
 <path d="M1883 1339 c-32 -34 -101 -92 -153 -129 -109 -77 -133 -101 -128 -126 3 -15 8 -13 38 13 19 16 69 54 110 83 125 88 228 198 200 215 -5 3 -35 -22 -67 -56z"/>
 <path d="M1056 1235 c-16 -24 -17 -25 -191 -27 -248 -4 -230 -22 25 -26 l200 -2 0 34 c0 44 -13 53 -34 21z"/>
 <path d="M1539 986 c-9 -20 -10 -29 -1 -38 8 -8 14 -4 23 16 9 20 10 29 1 38 -8 8 -14 4 -23 -16z"/>
 <path d="M1851 755 c-45 -34 -60 -50 -52 -58 21 -21 126 55 120 86 -3 15 -14 10 -68 -28z"/>
 <path d="M1547 764 c-12 -12 -8 -31 9 -48 15 -16 34 -14 34 3 0 16 -35 52 -43 45z"/>
 <path d="M1945 698 c-8 -20 12 -61 26 -53 13 9 11 28 -5 51 -13 17 -15 17 -21 2z"/>
 <path d="M1606 692 c-9 -15 12 -35 29 -28 14 5 15 9 5 21 -14 17 -26 19 -34 7z"/>
 <path d="M1700 676 c-10 -13 -9 -17 5 -22 19 -8 45 4 48 21 3 17 -39 17 -53 1z"/>
 <path d="M1407 583 c-9 -8 10 -40 28 -47 22 -8 19 31 -4 43 -10 6 -21 8 -24 4z"/>
 <path d="M1954 548 c-37 -29 -45 -41 -34 -52 15 -15 96 46 85 65 -9 14 -20 11 -51 -13z"/>
 </g>
<g id="layer5" fill="#ffce00" stroke="none">
 <path d="M1520 2245 c-41 -14 -93 -37 -116 -52 -23 -16 -59 -40 -82 -55 -46 -31 -58 -58 -44 -96 6 -15 18 -54 28 -87 23 -81 35 -105 50 -105 7 0 43 23 79 50 104 79 160 103 216 97 67 -8 83 -22 113 -94 43 -105 32 -264 -24 -343 -11 -16 -57 -54 -101 -85 -100 -70 -215 -174 -252 -228 -32 -47 -72 -168 -81 -249 -9 -73 10 -237 34 -306 11 -28 31 -69 45 -90 14 -20 34 -51 45 -67 51 -81 186 -142 280 -129 79 12 180 54 241 101 64 50 68 62 43 121 -9 20 -24 65 -35 100 -12 39 -25 62 -34 62 -8 0 -37 -16 -64 -35 -26 -19 -52 -35 -57 -35 -5 0 -26 -9 -46 -20 -52 -28 -126 -18 -165 22 -27 28 -28 34 -30 141 l-3 112 38 65 c32 55 53 76 132 132 138 98 228 196 263 286 45 115 52 178 38 326 -14 136 -22 168 -71 271 -33 69 -113 151 -183 186 -64 33 -166 35 -257 4z"/>
 <path d="M486 2244 c-14 -14 -16 -109 -16 -899 0 -790 2 -885 16 -899 13 -14 58 -16 339 -16 281 0 326 2 339 16 23 22 23 216 0 238 -13 14 -49 16 -235 16 l-219 0 0 240 0 240 174 0 c215 0 211 -2 203 110 -7 89 -22 137 -47 150 -10 6 -89 10 -174 10 l-156 0 0 270 0 270 234 0 c200 0 237 2 250 16 23 22 23 216 0 238 -13 14 -60 16 -354 16 -294 0 -341 -2 -354 -16z"/>
 </g>

</svg>